<svg preserveAspectRatio="none" overflow="visible" style="display: block;" width="20" height="20" viewBox="0 0 20 20" fill="none" xmlns="http://www.w3.org/2000/svg">
<g id="chevron">
<path id="glyph" d="M10 12.0833C9.91788 12.0837 9.83652 12.0677 9.76067 12.0362C9.68483 12.0047 9.61604 11.9584 9.55833 11.9L6.66667 8.98333C6.59051 8.86587 6.55599 8.72624 6.56865 8.58682C6.5813 8.4474 6.6404 8.31626 6.73647 8.21443C6.83253 8.1126 6.96 8.04597 7.09845 8.02522C7.2369 8.00447 7.3783 8.03081 7.5 8.1L10 10.6L12.5 8.1C12.6217 8.03081 12.7631 8.00447 12.9015 8.02522C13.04 8.04597 13.1675 8.1126 13.2635 8.21443C13.3596 8.31626 13.4187 8.4474 13.4314 8.58682C13.444 8.72624 13.4095 8.86587 13.3333 8.98333L10.4167 11.9C10.3062 12.012 10.1572 12.0776 10 12.0833Z" fill="#9EA2A8"/>
</g>
</svg>
