<svg preserveAspectRatio="none" overflow="visible" style="display: block;" width="18" height="18" viewBox="0 0 18 18" fill="none" xmlns="http://www.w3.org/2000/svg">
<g id="icon">
<g id="glyph">
<path d="M8.0775 13.725C6.96053 13.725 5.86864 13.3938 4.93991 12.7732C4.01119 12.1527 3.28733 11.2707 2.85989 10.2387C2.43244 9.20676 2.3206 8.07124 2.53851 6.97573C2.75642 5.88022 3.29429 4.87393 4.08411 4.08412C4.87393 3.2943 5.88021 2.75643 6.97572 2.53852C8.07123 2.32061 9.20675 2.43245 10.2387 2.85989C11.2706 3.28734 12.1527 4.01119 12.7732 4.93992C13.3938 5.86864 13.725 6.96053 13.725 8.0775C13.725 8.81914 13.5789 9.55352 13.2951 10.2387C13.0113 10.9239 12.5953 11.5465 12.0709 12.0709C11.5465 12.5953 10.9239 13.0113 10.2387 13.2951C9.55351 13.5789 8.81914 13.725 8.0775 13.725ZM8.0775 3.5625C7.18748 3.5625 6.31745 3.82642 5.57743 4.32089C4.83741 4.81535 4.26063 5.51816 3.92004 6.34043C3.57944 7.16269 3.49033 8.06749 3.66396 8.94041C3.83759 9.81332 4.26618 10.6151 4.89551 11.2445C5.52485 11.8738 6.32667 12.3024 7.19959 12.476C8.0725 12.6497 8.9773 12.5606 9.79957 12.22C10.6218 11.8794 11.3246 11.3026 11.8191 10.5626C12.3136 9.82255 12.5775 8.95252 12.5775 8.0625C12.5775 6.86903 12.1034 5.72443 11.2595 4.88052C10.4156 4.03661 9.27097 3.5625 8.0775 3.5625Z" fill="#8FC7A8"/>
<path d="M15 15.5625C14.9261 15.5628 14.8529 15.5484 14.7846 15.5201C14.7163 15.4918 14.6544 15.4501 14.6025 15.3975L11.505 12.3C11.4056 12.1934 11.3515 12.0523 11.3541 11.9066C11.3567 11.7609 11.4157 11.6218 11.5188 11.5188C11.6218 11.4157 11.7609 11.3567 11.9066 11.3541C12.0523 11.3515 12.1934 11.4056 12.3 11.505L15.3975 14.6025C15.5028 14.708 15.562 14.8509 15.562 15C15.562 15.1491 15.5028 15.292 15.3975 15.3975C15.3456 15.4501 15.2836 15.4918 15.2154 15.5201C15.1471 15.5484 15.0739 15.5628 15 15.5625Z" fill="#8FC7A8"/>
</g>
</g>
</svg>
