<svg preserveAspectRatio="none" overflow="visible" style="display: block;" width="18" height="18" viewBox="0 0 18 18" fill="none" xmlns="http://www.w3.org/2000/svg">
<g id="icon">
<path id="glyph" d="M6.705 15.555C5.59286 15.5593 4.52057 15.1411 3.705 14.385C3.30782 14.0177 2.9909 13.5723 2.77415 13.0767C2.5574 12.5811 2.44551 12.046 2.44551 11.505C2.44551 10.964 2.5574 10.4289 2.77415 9.93332C2.9909 9.43769 3.30782 8.99225 3.705 8.625L9.375 3.27C9.95815 2.7377 10.7192 2.44259 11.5087 2.44259C12.2983 2.44259 13.0594 2.7377 13.6425 3.27C13.9465 3.55225 14.1903 3.89311 14.3592 4.27206C14.528 4.651 14.6184 5.06019 14.625 5.475C14.627 5.83348 14.5548 6.18849 14.4128 6.51765C14.2708 6.84682 14.0622 7.14299 13.8 7.3875L8.1225 12.75C7.77991 13.0679 7.32984 13.2445 6.8625 13.2445C6.39516 13.2445 5.94509 13.0679 5.6025 12.75C5.4325 12.5934 5.29682 12.4032 5.20402 12.1915C5.11121 11.9798 5.06329 11.7512 5.06329 11.52C5.06329 11.2888 5.11121 11.0602 5.20402 10.8485C5.29682 10.6368 5.4325 10.4466 5.6025 10.29L10.8525 5.3475C10.958 5.24216 11.1009 5.18299 11.25 5.18299C11.3991 5.18299 11.542 5.24216 11.6475 5.3475C11.7528 5.45297 11.812 5.59594 11.812 5.745C11.812 5.89406 11.7528 6.03703 11.6475 6.1425L6.3975 11.085C6.33862 11.1364 6.29142 11.1998 6.25907 11.2709C6.22673 11.3421 6.21 11.4193 6.21 11.4975C6.21 11.5757 6.22673 11.6529 6.25907 11.7241C6.29142 11.7952 6.33862 11.8586 6.3975 11.91C6.53335 12.0262 6.70624 12.09 6.885 12.09C7.06377 12.09 7.23665 12.0262 7.3725 11.91L13.05 6.5625C13.1945 6.42093 13.3088 6.25162 13.3861 6.06473C13.4634 5.87784 13.5022 5.67724 13.5 5.475C13.4938 5.21432 13.4348 4.95762 13.3265 4.72042C13.2182 4.48321 13.0629 4.27045 12.87 4.095C12.4998 3.75184 12.0136 3.56117 11.5087 3.56117C11.0039 3.56117 10.5177 3.75184 10.1475 4.095L4.5 9.4425C4.214 9.70458 3.98564 10.0233 3.82941 10.3783C3.67318 10.7334 3.5925 11.1171 3.5925 11.505C3.5925 11.8929 3.67318 12.2766 3.82941 12.6317C3.98564 12.9867 4.214 13.3054 4.5 13.5675C5.11088 14.1369 5.91491 14.4535 6.75 14.4535C7.58509 14.4535 8.38912 14.1369 9 13.5675L14.6175 8.25C14.6692 8.19693 14.731 8.15476 14.7993 8.12596C14.8676 8.09716 14.9409 8.08232 15.015 8.08232C15.0891 8.08232 15.1624 8.09716 15.2307 8.12596C15.299 8.15476 15.3608 8.19693 15.4125 8.25C15.5178 8.35547 15.577 8.49844 15.577 8.6475C15.577 8.79656 15.5178 8.93953 15.4125 9.045L9.75 14.385C8.92351 15.1525 7.83278 15.5716 6.705 15.555Z" fill="#9EA2A8"/>
</g>
</svg>
