<svg preserveAspectRatio="none" overflow="visible" style="display: block;" width="20" height="20" viewBox="0 0 20 20" fill="none" xmlns="http://www.w3.org/2000/svg">
<g id="home">
<g id="glyph">
<path d="M16.6667 9.79167C16.5313 9.79228 16.3996 9.74835 16.2917 9.66667L10 4.95L3.70834 9.66667C3.57573 9.76612 3.40904 9.80883 3.24495 9.78539C3.08085 9.76194 2.93279 9.67428 2.83334 9.54167C2.73388 9.40906 2.69118 9.24237 2.71462 9.07828C2.73806 8.91418 2.82573 8.76612 2.95834 8.66667L9.625 3.66667C9.73319 3.58553 9.86477 3.54167 10 3.54167C10.1352 3.54167 10.2668 3.58553 10.375 3.66667L17.0417 8.66667C17.1627 8.76495 17.2426 8.90492 17.2657 9.0591C17.2889 9.21328 17.2535 9.37053 17.1667 9.5C17.1136 9.58582 17.0402 9.65729 16.953 9.70815C16.8658 9.759 16.7675 9.78768 16.6667 9.79167Z" fill="#9EA2A8"/>
<path d="M15 16.4583H5C4.83491 16.4562 4.67719 16.3896 4.56044 16.2729C4.4437 16.1561 4.37716 15.9984 4.375 15.8333V7.91667C4.375 7.75091 4.44085 7.59194 4.55806 7.47473C4.67527 7.35752 4.83424 7.29167 5 7.29167C5.16576 7.29167 5.32473 7.35752 5.44194 7.47473C5.55915 7.59194 5.625 7.75091 5.625 7.91667V15.2083H14.375V7.91667C14.375 7.75091 14.4408 7.59194 14.5581 7.47473C14.6753 7.35752 14.8342 7.29167 15 7.29167C15.1658 7.29167 15.3247 7.35752 15.4419 7.47473C15.5592 7.59194 15.625 7.75091 15.625 7.91667V15.8333C15.6228 15.9984 15.5563 16.1561 15.4396 16.2729C15.3228 16.3896 15.1651 16.4562 15 16.4583Z" fill="#9EA2A8"/>
<path d="M11.6667 16.4583C11.5016 16.4562 11.3439 16.3896 11.2271 16.2729C11.1104 16.1561 11.0438 15.9984 11.0417 15.8333V10.625H8.95833V15.8333C8.95833 15.9991 8.89249 16.1581 8.77527 16.2753C8.65806 16.3925 8.49909 16.4583 8.33333 16.4583C8.16757 16.4583 8.0086 16.3925 7.89139 16.2753C7.77418 16.1581 7.70833 15.9991 7.70833 15.8333V10C7.71049 9.83491 7.77703 9.67719 7.89378 9.56045C8.01052 9.4437 8.16824 9.37716 8.33333 9.375H11.6667C11.8318 9.37716 11.9895 9.4437 12.1062 9.56045C12.223 9.67719 12.2895 9.83491 12.2917 10V15.8333C12.2895 15.9984 12.223 16.1561 12.1062 16.2729C11.9895 16.3896 11.8318 16.4562 11.6667 16.4583Z" fill="#9EA2A8"/>
</g>
</g>
</svg>
